<svg width="446" height="306" viewBox="0 0 446 306" fill="none" xmlns="http://www.w3.org/2000/svg">
<rect x="69.1992" y="4.13086" width="21.0167" height="267.486" fill="url(#paint0_linear_705_4432)" fill-opacity="0.43"/>
<rect x="101.68" y="4.13086" width="21.0167" height="267.486" fill="url(#paint1_linear_705_4432)" fill-opacity="0.43"/>
<rect x="134.16" y="4.13086" width="21.0167" height="267.486" fill="url(#paint2_linear_705_4432)" fill-opacity="0.43"/>
<rect x="166.641" y="4.13086" width="21.0167" height="267.486" fill="url(#paint3_linear_705_4432)" fill-opacity="0.43"/>
<rect x="201.031" y="4.13086" width="21.0167" height="267.486" fill="url(#paint4_linear_705_4432)" fill-opacity="0.43"/>
<rect x="231.602" y="4.13086" width="21.0167" height="267.486" fill="url(#paint5_linear_705_4432)" fill-opacity="0.43"/>
<rect x="264.082" y="4.13086" width="21.0167" height="267.486" fill="url(#paint6_linear_705_4432)" fill-opacity="0.43"/>
<rect x="296.562" y="4.13086" width="21.0167" height="267.486" fill="url(#paint7_linear_705_4432)" fill-opacity="0.43"/>
<rect x="329.043" y="4.13086" width="21.0167" height="267.486" fill="url(#paint8_linear_705_4432)" fill-opacity="0.43"/>
<rect x="361.523" y="4.13086" width="21.0167" height="267.486" fill="url(#paint9_linear_705_4432)" fill-opacity="0.43"/>
<rect x="394.004" y="4.13086" width="21.0167" height="267.486" fill="url(#paint10_linear_705_4432)" fill-opacity="0.43"/>
<rect x="424.574" y="4.13086" width="21.0167" height="267.486" fill="url(#paint11_linear_705_4432)" fill-opacity="0.43"/>
<rect x="36.7188" y="4.13086" width="21.0167" height="267.486" fill="url(#paint12_linear_705_4432)" fill-opacity="0.43"/>
<path d="M22.3906 231.494H442.725" stroke="#898989" stroke-opacity="0.2" stroke-width="0.5" stroke-linecap="round"/>
<path d="M22.3906 179.908H442.725" stroke="#898989" stroke-opacity="0.2" stroke-width="0.5" stroke-linecap="round"/>
<path d="M22.3906 130.232H442.725" stroke="#898989" stroke-opacity="0.2" stroke-width="0.5" stroke-linecap="round"/>
<path d="M22.3906 78.6455H442.725" stroke="#898989" stroke-opacity="0.2" stroke-width="0.5" stroke-linecap="round"/>
<path d="M22.3906 28.9695H442.725" stroke="#898989" stroke-opacity="0.2" stroke-width="0.5" stroke-linecap="round"/>
<path d="M69.1992 284.991V5.08691" stroke="#898989" stroke-opacity="0.2" stroke-width="0.5" stroke-linecap="round"/>
<path d="M101.68 284.991V5.08691" stroke="#898989" stroke-opacity="0.2" stroke-width="0.5" stroke-linecap="round"/>
<path d="M134.16 284.991V5.08691" stroke="#898989" stroke-opacity="0.2" stroke-width="0.5" stroke-linecap="round"/>
<path d="M166.641 284.991V5.08691" stroke="#898989" stroke-opacity="0.2" stroke-width="0.5" stroke-linecap="round"/>
<path d="M201.035 284.991V5.08691" stroke="#898989" stroke-opacity="0.2" stroke-width="0.5" stroke-linecap="round"/>
<path d="M231.602 284.991V5.08691" stroke="#898989" stroke-opacity="0.2" stroke-width="0.5" stroke-linecap="round"/>
<path d="M264.082 284.991V5.08691" stroke="#898989" stroke-opacity="0.2" stroke-width="0.5" stroke-linecap="round"/>
<path d="M296.562 284.991V5.08691" stroke="#898989" stroke-opacity="0.2" stroke-width="0.5" stroke-linecap="round"/>
<path d="M329.043 284.991V5.08691" stroke="#898989" stroke-opacity="0.2" stroke-width="0.5" stroke-linecap="round"/>
<path d="M361.523 284.991V5.08691" stroke="#898989" stroke-opacity="0.2" stroke-width="0.5" stroke-linecap="round"/>
<path d="M394.004 284.991V5.08691" stroke="#898989" stroke-opacity="0.2" stroke-width="0.5" stroke-linecap="round"/>
<path d="M424.574 284.991V5.08691" stroke="#898989" stroke-opacity="0.2" stroke-width="0.5" stroke-linecap="round"/>
<path d="M36 4V271H444" stroke="#898989" stroke-width="0.3" stroke-linecap="round"/>
<g opacity="0.81" filter="url(#filter0_bd_705_4432)">
<rect x="190.484" y="4.13086" width="182.415" height="57.6754" rx="5" fill="#E3E3E3" fill-opacity="0.66" shape-rendering="crispEdges"/>
</g>
<path d="M219.164 24.918C219.164 24.543 219.031 24.2539 218.766 24.0508C218.504 23.8477 218.029 23.6426 217.342 23.4355C216.654 23.2285 216.107 22.998 215.701 22.7441C214.924 22.2559 214.535 21.6191 214.535 20.834C214.535 20.1465 214.814 19.5801 215.373 19.1348C215.936 18.6895 216.664 18.4668 217.559 18.4668C218.152 18.4668 218.682 18.5762 219.146 18.7949C219.611 19.0137 219.977 19.3262 220.242 19.7324C220.508 20.1348 220.641 20.582 220.641 21.0742H219.164C219.164 20.6289 219.023 20.2812 218.742 20.0312C218.465 19.7773 218.066 19.6504 217.547 19.6504C217.062 19.6504 216.686 19.7539 216.416 19.9609C216.15 20.168 216.018 20.457 216.018 20.8281C216.018 21.1406 216.162 21.4023 216.451 21.6133C216.74 21.8203 217.217 22.0234 217.881 22.2227C218.545 22.418 219.078 22.6426 219.48 22.8965C219.883 23.1465 220.178 23.4355 220.365 23.7637C220.553 24.0879 220.646 24.4688 220.646 24.9062C220.646 25.6172 220.373 26.1836 219.826 26.6055C219.283 27.0234 218.545 27.2324 217.611 27.2324C216.994 27.2324 216.426 27.1191 215.906 26.8926C215.391 26.6621 214.988 26.3457 214.699 25.9434C214.414 25.541 214.271 25.0723 214.271 24.5371H215.754C215.754 25.0215 215.914 25.3965 216.234 25.6621C216.555 25.9277 217.014 26.0605 217.611 26.0605C218.127 26.0605 218.514 25.957 218.771 25.75C219.033 25.5391 219.164 25.2617 219.164 24.918ZM223.148 20.7754L223.189 21.4375C223.635 20.918 224.244 20.6582 225.018 20.6582C225.865 20.6582 226.445 20.9824 226.758 21.6309C227.219 20.9824 227.867 20.6582 228.703 20.6582C229.402 20.6582 229.922 20.8516 230.262 21.2383C230.605 21.625 230.781 22.1953 230.789 22.9492V27.1152H229.365V22.9902C229.365 22.5879 229.277 22.293 229.102 22.1055C228.926 21.918 228.635 21.8242 228.229 21.8242C227.904 21.8242 227.639 21.9121 227.432 22.0879C227.229 22.2598 227.086 22.4863 227.004 22.7676L227.01 27.1152H225.586V22.9434C225.566 22.1973 225.186 21.8242 224.443 21.8242C223.873 21.8242 223.469 22.0566 223.23 22.5215V27.1152H221.807V20.7754H223.148ZM236.039 27.1152C235.977 26.9941 235.922 26.7969 235.875 26.5234C235.422 26.9961 234.867 27.2324 234.211 27.2324C233.574 27.2324 233.055 27.0508 232.652 26.6875C232.25 26.3242 232.049 25.875 232.049 25.3398C232.049 24.6641 232.299 24.1465 232.799 23.7871C233.303 23.4238 234.021 23.2422 234.955 23.2422H235.828V22.8262C235.828 22.498 235.736 22.2363 235.553 22.041C235.369 21.8418 235.09 21.7422 234.715 21.7422C234.391 21.7422 234.125 21.8242 233.918 21.9883C233.711 22.1484 233.607 22.3535 233.607 22.6035H232.184C232.184 22.2559 232.299 21.9316 232.529 21.6309C232.76 21.3262 233.072 21.0879 233.467 20.916C233.865 20.7441 234.309 20.6582 234.797 20.6582C235.539 20.6582 236.131 20.8457 236.572 21.2207C237.014 21.5918 237.24 22.1152 237.252 22.791V25.6504C237.252 26.2207 237.332 26.6758 237.492 27.0156V27.1152H236.039ZM234.475 26.0898C234.756 26.0898 235.02 26.0215 235.266 25.8848C235.516 25.748 235.703 25.5645 235.828 25.334V24.1387H235.061C234.533 24.1387 234.137 24.2305 233.871 24.4141C233.605 24.5977 233.473 24.8574 233.473 25.1934C233.473 25.4668 233.562 25.6855 233.742 25.8496C233.926 26.0098 234.17 26.0898 234.475 26.0898ZM242.062 22.0762C241.875 22.0449 241.682 22.0293 241.482 22.0293C240.83 22.0293 240.391 22.2793 240.164 22.7793V27.1152H238.74V20.7754H240.1L240.135 21.4844C240.479 20.9336 240.955 20.6582 241.564 20.6582C241.768 20.6582 241.936 20.6855 242.068 20.7402L242.062 22.0762ZM245.039 19.2344V20.7754H246.158V21.8301H245.039V25.3691C245.039 25.6113 245.086 25.7871 245.18 25.8965C245.277 26.002 245.449 26.0547 245.695 26.0547C245.859 26.0547 246.025 26.0352 246.193 25.9961V27.0977C245.869 27.1875 245.557 27.2324 245.256 27.2324C244.162 27.2324 243.615 26.6289 243.615 25.4219V21.8301H242.572V20.7754H243.615V19.2344H245.039ZM254.162 27.1152H252.686V23.3242H248.871V27.1152H247.389V18.584H248.871V22.1348H252.686V18.584H254.162V27.1152ZM258.574 27.2324C257.672 27.2324 256.939 26.9492 256.377 26.3828C255.818 25.8125 255.539 25.0547 255.539 24.1094V23.9336C255.539 23.3008 255.66 22.7363 255.902 22.2402C256.148 21.7402 256.492 21.3516 256.934 21.0742C257.375 20.7969 257.867 20.6582 258.41 20.6582C259.273 20.6582 259.939 20.9336 260.408 21.4844C260.881 22.0352 261.117 22.8145 261.117 23.8223V24.3965H256.975C257.018 24.9199 257.191 25.334 257.496 25.6387C257.805 25.9434 258.191 26.0957 258.656 26.0957C259.309 26.0957 259.84 25.832 260.25 25.3047L261.018 26.0371C260.764 26.416 260.424 26.7109 259.998 26.9219C259.576 27.1289 259.102 27.2324 258.574 27.2324ZM258.404 21.8008C258.014 21.8008 257.697 21.9375 257.455 22.2109C257.217 22.4844 257.064 22.8652 256.998 23.3535H259.711V23.248C259.68 22.7715 259.553 22.4121 259.33 22.1699C259.107 21.9238 258.799 21.8008 258.404 21.8008ZM263.742 27.1152H262.318V18.1152H263.742V27.1152ZM266.812 27.1152H265.389V20.7754H266.812V27.1152ZM265.301 19.1289C265.301 18.9102 265.369 18.7285 265.506 18.584C265.646 18.4395 265.846 18.3672 266.104 18.3672C266.361 18.3672 266.561 18.4395 266.701 18.584C266.842 18.7285 266.912 18.9102 266.912 19.1289C266.912 19.3438 266.842 19.5234 266.701 19.668C266.561 19.8086 266.361 19.8789 266.104 19.8789C265.846 19.8789 265.646 19.8086 265.506 19.668C265.369 19.5234 265.301 19.3438 265.301 19.1289ZM268.102 23.8867C268.102 23.2656 268.225 22.707 268.471 22.2109C268.717 21.7109 269.062 21.3281 269.508 21.0625C269.953 20.793 270.465 20.6582 271.043 20.6582C271.898 20.6582 272.592 20.9336 273.123 21.4844C273.658 22.0352 273.947 22.7656 273.99 23.6758L273.996 24.0098C273.996 24.6348 273.875 25.1934 273.633 25.6855C273.395 26.1777 273.051 26.5586 272.602 26.8281C272.156 27.0977 271.641 27.2324 271.055 27.2324C270.16 27.2324 269.443 26.9355 268.904 26.3418C268.369 25.7441 268.102 24.9492 268.102 23.957V23.8867ZM269.525 24.0098C269.525 24.6621 269.66 25.1738 269.93 25.5449C270.199 25.9121 270.574 26.0957 271.055 26.0957C271.535 26.0957 271.908 25.9082 272.174 25.5332C272.443 25.1582 272.578 24.6094 272.578 23.8867C272.578 23.2461 272.439 22.7383 272.162 22.3633C271.889 21.9883 271.516 21.8008 271.043 21.8008C270.578 21.8008 270.209 21.9863 269.936 22.3574C269.662 22.7246 269.525 23.2754 269.525 24.0098ZM285.1 27.1152H283.623V23.3242H279.809V27.1152H278.326V18.584H279.809V22.1348H283.623V18.584H285.1V27.1152ZM289.512 27.2324C288.609 27.2324 287.877 26.9492 287.314 26.3828C286.756 25.8125 286.477 25.0547 286.477 24.1094V23.9336C286.477 23.3008 286.598 22.7363 286.84 22.2402C287.086 21.7402 287.43 21.3516 287.871 21.0742C288.312 20.7969 288.805 20.6582 289.348 20.6582C290.211 20.6582 290.877 20.9336 291.346 21.4844C291.818 22.0352 292.055 22.8145 292.055 23.8223V24.3965H287.912C287.955 24.9199 288.129 25.334 288.434 25.6387C288.742 25.9434 289.129 26.0957 289.594 26.0957C290.246 26.0957 290.777 25.832 291.188 25.3047L291.955 26.0371C291.701 26.416 291.361 26.7109 290.936 26.9219C290.514 27.1289 290.039 27.2324 289.512 27.2324ZM289.342 21.8008C288.951 21.8008 288.635 21.9375 288.393 22.2109C288.154 22.4844 288.002 22.8652 287.936 23.3535H290.648V23.248C290.617 22.7715 290.49 22.4121 290.268 22.1699C290.045 21.9238 289.736 21.8008 289.342 21.8008ZM294.68 27.1152H293.256V18.1152H294.68V27.1152ZM301.787 24.0098C301.787 24.9902 301.564 25.7734 301.119 26.3594C300.674 26.9414 300.076 27.2324 299.326 27.2324C298.631 27.2324 298.074 27.0039 297.656 26.5469V29.5527H296.232V20.7754H297.545L297.604 21.4199C298.021 20.9121 298.59 20.6582 299.309 20.6582C300.082 20.6582 300.688 20.9473 301.125 21.5254C301.566 22.0996 301.787 22.8984 301.787 23.9219V24.0098ZM300.369 23.8867C300.369 23.2539 300.242 22.752 299.988 22.3809C299.738 22.0098 299.379 21.8242 298.91 21.8242C298.328 21.8242 297.91 22.0645 297.656 22.5449V25.3574C297.914 25.8496 298.336 26.0957 298.922 26.0957C299.375 26.0957 299.729 25.9141 299.982 25.5508C300.24 25.1836 300.369 24.6289 300.369 23.8867ZM306.551 25.3926C306.551 25.1387 306.445 24.9453 306.234 24.8125C306.027 24.6797 305.682 24.5625 305.197 24.4609C304.713 24.3594 304.309 24.2305 303.984 24.0742C303.273 23.7305 302.918 23.2324 302.918 22.5801C302.918 22.0332 303.148 21.5762 303.609 21.209C304.07 20.8418 304.656 20.6582 305.367 20.6582C306.125 20.6582 306.736 20.8457 307.201 21.2207C307.67 21.5957 307.904 22.082 307.904 22.6797H306.48C306.48 22.4062 306.379 22.1797 306.176 22C305.973 21.8164 305.703 21.7246 305.367 21.7246C305.055 21.7246 304.799 21.7969 304.6 21.9414C304.404 22.0859 304.307 22.2793 304.307 22.5215C304.307 22.7402 304.398 22.9102 304.582 23.0312C304.766 23.1523 305.137 23.2754 305.695 23.4004C306.254 23.5215 306.691 23.668 307.008 23.8398C307.328 24.0078 307.564 24.2109 307.717 24.4492C307.873 24.6875 307.951 24.9766 307.951 25.3164C307.951 25.8867 307.715 26.3496 307.242 26.7051C306.77 27.0566 306.15 27.2324 305.385 27.2324C304.865 27.2324 304.402 27.1387 303.996 26.9512C303.59 26.7637 303.273 26.5059 303.047 26.1777C302.82 25.8496 302.707 25.4961 302.707 25.1172H304.09C304.109 25.4531 304.236 25.7129 304.471 25.8965C304.705 26.0762 305.016 26.166 305.402 26.166C305.777 26.166 306.062 26.0957 306.258 25.9551C306.453 25.8105 306.551 25.623 306.551 25.3926ZM315.457 23.8281H313.805V27.1152H312.322V18.584H315.322C316.307 18.584 317.066 18.8047 317.602 19.2461C318.137 19.6875 318.404 20.3262 318.404 21.1621C318.404 21.7324 318.266 22.2109 317.988 22.5977C317.715 22.9805 317.332 23.2754 316.84 23.4824L318.756 27.0391V27.1152H317.168L315.457 23.8281ZM313.805 22.6387H315.328C315.828 22.6387 316.219 22.5137 316.5 22.2637C316.781 22.0098 316.922 21.6641 316.922 21.2266C316.922 20.7695 316.791 20.416 316.529 20.166C316.271 19.916 315.885 19.7871 315.369 19.7793H313.805V22.6387ZM322.465 27.2324C321.562 27.2324 320.83 26.9492 320.268 26.3828C319.709 25.8125 319.43 25.0547 319.43 24.1094V23.9336C319.43 23.3008 319.551 22.7363 319.793 22.2402C320.039 21.7402 320.383 21.3516 320.824 21.0742C321.266 20.7969 321.758 20.6582 322.301 20.6582C323.164 20.6582 323.83 20.9336 324.299 21.4844C324.771 22.0352 325.008 22.8145 325.008 23.8223V24.3965H320.865C320.908 24.9199 321.082 25.334 321.387 25.6387C321.695 25.9434 322.082 26.0957 322.547 26.0957C323.199 26.0957 323.73 25.832 324.141 25.3047L324.908 26.0371C324.654 26.416 324.314 26.7109 323.889 26.9219C323.467 27.1289 322.992 27.2324 322.465 27.2324ZM322.295 21.8008C321.904 21.8008 321.588 21.9375 321.346 22.2109C321.107 22.4844 320.955 22.8652 320.889 23.3535H323.602V23.248C323.57 22.7715 323.443 22.4121 323.221 22.1699C322.998 21.9238 322.689 21.8008 322.295 21.8008ZM327.902 19.2344V20.7754H329.021V21.8301H327.902V25.3691C327.902 25.6113 327.949 25.7871 328.043 25.8965C328.141 26.002 328.312 26.0547 328.559 26.0547C328.723 26.0547 328.889 26.0352 329.057 25.9961V27.0977C328.732 27.1875 328.42 27.2324 328.119 27.2324C327.025 27.2324 326.479 26.6289 326.479 25.4219V21.8301H325.436V20.7754H326.479V19.2344H327.902ZM333.434 22.0762C333.246 22.0449 333.053 22.0293 332.854 22.0293C332.201 22.0293 331.762 22.2793 331.535 22.7793V27.1152H330.111V20.7754H331.471L331.506 21.4844C331.85 20.9336 332.326 20.6582 332.936 20.6582C333.139 20.6582 333.307 20.6855 333.439 20.7402L333.434 22.0762ZM335.848 27.1152H334.424V20.7754H335.848V27.1152ZM334.336 19.1289C334.336 18.9102 334.404 18.7285 334.541 18.584C334.682 18.4395 334.881 18.3672 335.139 18.3672C335.396 18.3672 335.596 18.4395 335.736 18.584C335.877 18.7285 335.947 18.9102 335.947 19.1289C335.947 19.3438 335.877 19.5234 335.736 19.668C335.596 19.8086 335.396 19.8789 335.139 19.8789C334.881 19.8789 334.682 19.8086 334.541 19.668C334.404 19.5234 334.336 19.3438 334.336 19.1289ZM340.195 27.2324C339.293 27.2324 338.561 26.9492 337.998 26.3828C337.439 25.8125 337.16 25.0547 337.16 24.1094V23.9336C337.16 23.3008 337.281 22.7363 337.523 22.2402C337.77 21.7402 338.113 21.3516 338.555 21.0742C338.996 20.7969 339.488 20.6582 340.031 20.6582C340.895 20.6582 341.561 20.9336 342.029 21.4844C342.502 22.0352 342.738 22.8145 342.738 23.8223V24.3965H338.596C338.639 24.9199 338.812 25.334 339.117 25.6387C339.426 25.9434 339.812 26.0957 340.277 26.0957C340.93 26.0957 341.461 25.832 341.871 25.3047L342.639 26.0371C342.385 26.416 342.045 26.7109 341.619 26.9219C341.197 27.1289 340.723 27.2324 340.195 27.2324ZM340.025 21.8008C339.635 21.8008 339.318 21.9375 339.076 22.2109C338.838 22.4844 338.686 22.8652 338.619 23.3535H341.332V23.248C341.301 22.7715 341.174 22.4121 340.951 22.1699C340.729 21.9238 340.42 21.8008 340.025 21.8008ZM346.002 25.3105L347.344 20.7754H348.814L346.617 27.1152H345.381L343.166 20.7754H344.643L346.002 25.3105ZM352.418 27.2324C351.516 27.2324 350.783 26.9492 350.221 26.3828C349.662 25.8125 349.383 25.0547 349.383 24.1094V23.9336C349.383 23.3008 349.504 22.7363 349.746 22.2402C349.992 21.7402 350.336 21.3516 350.777 21.0742C351.219 20.7969 351.711 20.6582 352.254 20.6582C353.117 20.6582 353.783 20.9336 354.252 21.4844C354.725 22.0352 354.961 22.8145 354.961 23.8223V24.3965H350.818C350.861 24.9199 351.035 25.334 351.34 25.6387C351.648 25.9434 352.035 26.0957 352.5 26.0957C353.152 26.0957 353.684 25.832 354.094 25.3047L354.861 26.0371C354.607 26.416 354.268 26.7109 353.842 26.9219C353.42 27.1289 352.945 27.2324 352.418 27.2324ZM352.248 21.8008C351.857 21.8008 351.541 21.9375 351.299 22.2109C351.061 22.4844 350.908 22.8652 350.842 23.3535H353.555V23.248C353.523 22.7715 353.396 22.4121 353.174 22.1699C352.951 21.9238 352.643 21.8008 352.248 21.8008Z" fill="#534B52"/>
<path d="M238.813 33.9158L241.035 40.8406L243.25 33.9158H246.408V43.8689H244.002V41.5447L244.234 36.7869L241.828 43.8689H240.242L237.829 36.78L238.062 41.5447V43.8689H235.662V33.9158H238.813ZM250.264 43.8689H247.953V36.4724H250.264V43.8689ZM247.816 34.5652C247.816 34.2371 247.935 33.9682 248.172 33.7585C248.409 33.5489 248.716 33.4441 249.095 33.4441C249.473 33.4441 249.781 33.5489 250.018 33.7585C250.255 33.9682 250.373 34.2371 250.373 34.5652C250.373 34.8933 250.255 35.1622 250.018 35.3718C249.781 35.5815 249.473 35.6863 249.095 35.6863C248.716 35.6863 248.409 35.5815 248.172 35.3718C247.935 35.1622 247.816 34.8933 247.816 34.5652ZM255.562 41.7908C255.562 41.5948 255.459 41.4376 255.254 41.3191C255.049 41.2006 254.659 41.0776 254.085 40.95C253.511 40.8223 253.037 40.656 252.663 40.4509C252.289 40.2413 252.005 39.9884 251.809 39.6921C251.613 39.3959 251.515 39.0564 251.515 38.6736C251.515 37.9945 251.795 37.4363 252.355 36.9988C252.916 36.5567 253.65 36.3357 254.557 36.3357C255.532 36.3357 256.316 36.5567 256.908 36.9988C257.501 37.4408 257.797 38.0219 257.797 38.7419H255.486C255.486 38.1495 255.174 37.8533 254.55 37.8533C254.308 37.8533 254.105 37.9216 253.941 38.0583C253.777 38.1905 253.695 38.3569 253.695 38.5574C253.695 38.7625 253.796 38.9288 253.996 39.0564C254.197 39.184 254.516 39.2888 254.953 39.3708C255.395 39.4529 255.783 39.5509 256.115 39.6648C257.227 40.0476 257.783 40.7335 257.783 41.7224C257.783 42.3969 257.482 42.946 256.881 43.3699C256.284 43.7937 255.509 44.0056 254.557 44.0056C253.923 44.0056 253.358 43.8917 252.861 43.6638C252.365 43.436 251.977 43.1261 251.699 42.7341C251.421 42.3422 251.282 41.9298 251.282 41.4968H253.436C253.445 41.8386 253.559 42.0893 253.777 42.2488C253.996 42.4037 254.276 42.4812 254.618 42.4812C254.933 42.4812 255.167 42.4174 255.322 42.2898C255.482 42.1622 255.562 41.9958 255.562 41.7908ZM262.739 41.7908C262.739 41.5948 262.637 41.4376 262.432 41.3191C262.227 41.2006 261.837 41.0776 261.263 40.95C260.688 40.8223 260.215 40.656 259.841 40.4509C259.467 40.2413 259.182 39.9884 258.986 39.6921C258.79 39.3959 258.692 39.0564 258.692 38.6736C258.692 37.9945 258.973 37.4363 259.533 36.9988C260.094 36.5567 260.827 36.3357 261.734 36.3357C262.71 36.3357 263.493 36.5567 264.086 36.9988C264.678 37.4408 264.975 38.0219 264.975 38.7419H262.664C262.664 38.1495 262.352 37.8533 261.728 37.8533C261.486 37.8533 261.283 37.9216 261.119 38.0583C260.955 38.1905 260.873 38.3569 260.873 38.5574C260.873 38.7625 260.973 38.9288 261.174 39.0564C261.374 39.184 261.693 39.2888 262.131 39.3708C262.573 39.4529 262.96 39.5509 263.293 39.6648C264.405 40.0476 264.961 40.7335 264.961 41.7224C264.961 42.3969 264.66 42.946 264.059 43.3699C263.462 43.7937 262.687 44.0056 261.734 44.0056C261.101 44.0056 260.536 43.8917 260.039 43.6638C259.542 43.436 259.155 43.1261 258.877 42.7341C258.599 42.3422 258.46 41.9298 258.46 41.4968H260.613C260.622 41.8386 260.736 42.0893 260.955 42.2488C261.174 42.4037 261.454 42.4812 261.796 42.4812C262.11 42.4812 262.345 42.4174 262.5 42.2898C262.66 42.1622 262.739 41.9958 262.739 41.7908ZM268.475 43.8689H266.164V36.4724H268.475V43.8689ZM266.027 34.5652C266.027 34.2371 266.146 33.9682 266.383 33.7585C266.62 33.5489 266.927 33.4441 267.306 33.4441C267.684 33.4441 267.992 33.5489 268.229 33.7585C268.465 33.9682 268.584 34.2371 268.584 34.5652C268.584 34.8933 268.465 35.1622 268.229 35.3718C267.992 35.5815 267.684 35.6863 267.306 35.6863C266.927 35.6863 266.62 35.5815 266.383 35.3718C266.146 35.1622 266.027 34.8933 266.027 34.5652ZM272.016 36.4724L272.091 37.3406C272.601 36.6707 273.305 36.3357 274.203 36.3357C274.973 36.3357 275.548 36.5658 275.926 37.0261C276.309 37.4864 276.507 38.1791 276.521 39.1042V43.8689H274.21V39.2C274.21 38.8263 274.135 38.5528 273.984 38.3796C273.834 38.2019 273.561 38.113 273.164 38.113C272.713 38.113 272.378 38.2908 272.159 38.6462V43.8689H269.855V36.4724H272.016ZM277.532 40.116C277.532 39.3686 277.655 38.7078 277.901 38.1335C278.147 37.5593 278.501 37.1173 278.961 36.8074C279.421 36.4929 279.957 36.3357 280.567 36.3357C281.338 36.3357 281.939 36.5955 282.372 37.115L282.454 36.4724H284.546V43.5886C284.546 44.2403 284.393 44.8054 284.088 45.2839C283.787 45.767 283.35 46.1361 282.775 46.3914C282.201 46.6511 281.536 46.781 280.779 46.781C280.237 46.781 279.711 46.6785 279.2 46.4734C278.694 46.2683 278.307 46.0017 278.038 45.6736L279.002 44.3201C279.43 44.8259 279.995 45.0789 280.697 45.0789C281.718 45.0789 282.229 44.5548 282.229 43.5066V43.2742C281.786 43.7618 281.228 44.0056 280.554 44.0056C279.651 44.0056 278.922 43.6615 278.366 42.9734C277.81 42.2807 277.532 41.3556 277.532 40.198V40.116ZM279.843 40.2595C279.843 40.8656 279.957 41.3464 280.185 41.7019C280.412 42.0528 280.731 42.2283 281.142 42.2283C281.638 42.2283 282.001 42.0619 282.229 41.7292V38.6189C282.005 38.2817 281.647 38.113 281.155 38.113C280.745 38.113 280.424 38.2976 280.191 38.6667C279.959 39.0313 279.843 39.5623 279.843 40.2595ZM289.447 43.8689V33.9158H292.653C293.533 33.9158 294.324 34.1163 295.025 34.5173C295.727 34.9138 296.274 35.4766 296.666 36.2058C297.062 36.9304 297.263 37.7439 297.268 38.6462V39.1042C297.268 40.0157 297.074 40.8337 296.687 41.5583C296.304 42.2784 295.761 42.8435 295.06 43.2537C294.362 43.6593 293.583 43.8643 292.722 43.8689H289.447ZM291.847 35.7683V42.0232H292.681C293.369 42.0232 293.897 41.7794 294.267 41.2917C294.636 40.7996 294.82 40.0704 294.82 39.1042V38.6736C294.82 37.712 294.636 36.9874 294.267 36.4998C293.897 36.0121 293.36 35.7683 292.653 35.7683H291.847ZM302.559 43.8689C302.477 43.7185 302.404 43.4975 302.34 43.2058C301.916 43.739 301.324 44.0056 300.562 44.0056C299.865 44.0056 299.273 43.796 298.785 43.3767C298.298 42.9529 298.054 42.422 298.054 41.7839C298.054 40.9819 298.35 40.3757 298.942 39.9656C299.535 39.5554 300.396 39.3503 301.526 39.3503H302.237V38.9607C302.237 38.2817 301.943 37.9421 301.355 37.9421C300.809 37.9421 300.535 38.211 300.535 38.7488H298.231C298.231 38.0333 298.535 37.4522 299.141 37.0056C299.751 36.559 300.528 36.3357 301.472 36.3357C302.415 36.3357 303.16 36.5658 303.707 37.0261C304.254 37.4864 304.534 38.1176 304.548 38.9197V42.1941C304.557 42.8731 304.662 43.3927 304.862 43.7527V43.8689H302.559ZM301.116 42.365C301.403 42.365 301.64 42.3035 301.827 42.1804C302.019 42.0574 302.155 41.9184 302.237 41.7634V40.5808H301.567C300.765 40.5808 300.364 40.9408 300.364 41.6609C300.364 41.8705 300.435 42.0414 300.576 42.1736C300.717 42.3012 300.897 42.365 301.116 42.365ZM308.513 34.6335V36.4724H309.729V38.072H308.513V41.4558C308.513 41.7338 308.563 41.9275 308.663 42.0369C308.763 42.1462 308.962 42.2009 309.258 42.2009C309.486 42.2009 309.677 42.1873 309.832 42.1599V43.8074C309.417 43.9395 308.984 44.0056 308.533 44.0056C307.74 44.0056 307.155 43.8188 306.776 43.4451C306.398 43.0714 306.209 42.504 306.209 41.7429V38.072H305.266V36.4724H306.209V34.6335H308.513ZM314.809 43.8689C314.727 43.7185 314.654 43.4975 314.59 43.2058C314.166 43.739 313.574 44.0056 312.812 44.0056C312.115 44.0056 311.523 43.796 311.035 43.3767C310.548 42.9529 310.304 42.422 310.304 41.7839C310.304 40.9819 310.6 40.3757 311.192 39.9656C311.785 39.5554 312.646 39.3503 313.776 39.3503H314.487V38.9607C314.487 38.2817 314.193 37.9421 313.605 37.9421C313.059 37.9421 312.785 38.211 312.785 38.7488H310.481C310.481 38.0333 310.785 37.4522 311.391 37.0056C312.001 36.559 312.778 36.3357 313.722 36.3357C314.665 36.3357 315.41 36.5658 315.957 37.0261C316.504 37.4864 316.784 38.1176 316.798 38.9197V42.1941C316.807 42.8731 316.912 43.3927 317.112 43.7527V43.8689H314.809ZM313.366 42.365C313.653 42.365 313.89 42.3035 314.077 42.1804C314.269 42.0574 314.405 41.9184 314.487 41.7634V40.5808H313.817C313.015 40.5808 312.614 40.9408 312.614 41.6609C312.614 41.8705 312.685 42.0414 312.826 42.1736C312.967 42.3012 313.147 42.365 313.366 42.365Z" fill="#FFAE00"/>
<path d="M1.72266 153.422L1.72266 155.371L7 155.371L7 155.852L1.72266 155.852L1.72266 157.797L1.3125 157.797L1.3125 153.422L1.72266 153.422ZM7 145.434L7 145.915L1.3125 145.915L1.3125 145.434L7 145.434ZM1.3125 136.77L6.33203 134.673L1.3125 132.567L1.3125 131.927L7 131.927L7 132.407L4.52344 132.407L1.98437 132.368L7 134.485L7 134.856L2.00391 136.966L4.50781 136.927L7 136.927L7 137.407L1.3125 137.407L1.3125 136.77ZM4.27344 120.865L4.27344 123.525L6.59375 123.525L6.59375 120.466L7 120.466L7 124.005L1.3125 124.005L1.3125 120.486L1.72265 120.486L1.72265 123.525L3.86719 123.525L3.86719 120.865L4.27344 120.865Z" fill="#534B52"/>
<path d="M212.719 304V298.312H214.309C214.775 298.312 215.193 298.419 215.562 298.633C215.932 298.844 216.22 299.147 216.426 299.543C216.634 299.939 216.738 300.389 216.738 300.895V301.418C216.738 301.926 216.635 302.376 216.43 302.77C216.224 303.163 215.934 303.466 215.559 303.68C215.186 303.893 214.758 304 214.273 304H212.719ZM213.199 298.723V303.594H214.277C214.876 303.594 215.357 303.396 215.719 303C216.081 302.602 216.262 302.064 216.262 301.387V300.887C216.262 300.233 216.083 299.71 215.727 299.316C215.37 298.923 214.9 298.725 214.316 298.723H213.199ZM227.425 302.406H224.843L224.257 304H223.753L225.906 298.312H226.363L228.515 304H228.015L227.425 302.406ZM224.992 301.996H227.273L226.132 298.898L224.992 301.996ZM237.136 301.414L238.874 298.312H239.429L237.374 301.859V304H236.894V301.859L234.843 298.312H235.413L237.136 301.414ZM249.893 302.602C249.893 302.286 249.782 302.038 249.561 301.855C249.34 301.671 248.935 301.496 248.346 301.332C247.758 301.165 247.328 300.984 247.057 300.789C246.672 300.513 246.479 300.151 246.479 299.703C246.479 299.268 246.657 298.915 247.014 298.645C247.374 298.371 247.832 298.234 248.389 298.234C248.767 298.234 249.104 298.307 249.401 298.453C249.7 298.599 249.932 298.802 250.096 299.062C250.26 299.323 250.342 299.613 250.342 299.934H249.858C249.858 299.546 249.725 299.234 249.46 299C249.194 298.763 248.837 298.645 248.389 298.645C247.954 298.645 247.608 298.742 247.35 298.938C247.092 299.13 246.963 299.383 246.963 299.695C246.963 299.984 247.079 300.22 247.311 300.402C247.543 300.585 247.914 300.746 248.424 300.887C248.935 301.025 249.322 301.169 249.585 301.32C249.848 301.469 250.045 301.647 250.178 301.855C250.311 302.064 250.377 302.31 250.377 302.594C250.377 303.042 250.198 303.401 249.838 303.672C249.482 303.943 249.01 304.078 248.424 304.078C248.023 304.078 247.655 304.007 247.319 303.863C246.986 303.72 246.732 303.52 246.557 303.262C246.385 303.004 246.299 302.708 246.299 302.375H246.78C246.78 302.776 246.93 303.092 247.229 303.324C247.529 303.556 247.927 303.672 248.424 303.672C248.867 303.672 249.223 303.574 249.491 303.379C249.759 303.184 249.893 302.924 249.893 302.602Z" fill="#534B52"/>
<path d="M40.3429 267.28L37 271L135 270.608L132.713 270.217C128.772 269.747 122.625 249.791 120.045 239.871L115.118 219.314L108.081 209.329L105.09 184.465L102.803 193.471H100.867L98.5799 194.842L90.8384 121.229L88.7271 132.388L86.9677 117.509L84.3285 121.229L82.0413 117.509L79.754 129.843L76.5871 104L72.3645 141.981L70.0772 144.331C68.8104 146.837 66.617 198.888 65.6786 224.6L63.3914 159.21L60.9282 196.016L58.289 187.794L56.0018 192.297L54.0664 222.642L51.2513 229.886L48.7882 215.594L40.3429 267.28Z" fill="url(#paint13_linear_705_4432)"/>
<path d="M326.343 266.723L323 271L421 270.55L418.713 270.1C414.772 269.559 408.625 246.615 406.045 235.211L401.118 211.577L394.081 200.097V154.5L388.803 181.865H386.867L384.58 183.441L376.838 98.8077L374.727 111.638L372.968 94.5311L370.329 98.8077L368.041 94.5311L366.5 98.5L362.587 79L358.364 122.667L354 130.5C352.733 133.381 352.617 188.093 351.679 217.654L349.391 142.475L346.928 184.791L344.289 175.338L342.002 180.515L340.066 215.403L337.251 223.732L334.788 207.3L326.343 266.723Z" fill="url(#paint14_linear_705_4432)"/>
<path d="M139.874 265.862L135 271H229L223.952 267.467L220.993 261.848C220.575 239.239 213.623 209.716 210.2 197.78L207.763 186.219L205.152 190.073L200.8 164.06L198.189 160.046L196.1 152.499L193.489 150.251L191.052 162.294L189.137 143.026L186.352 144.792C183.984 140.168 180.84 140.724 179.563 141.581C178.693 142.758 176.987 145.049 177.126 144.792C177.265 144.535 175.675 145.327 174.863 145.755L170.337 158.762L168.074 161.331L165.811 172.892L163.896 174.176C162.504 175.076 159.602 179.475 158.326 181.563H156.063C155.541 185.256 154.427 192.963 154.148 194.248C153.87 195.532 149.274 215.978 147.011 226.04L144.922 234.069L139.874 265.862Z" fill="url(#paint15_linear_705_4432)"/>
<path d="M233.874 264.399L229 271H323L317.952 266.462L314.993 259.243C314.575 230.2 307.623 192.273 304.2 176.941L301.763 162.089L299.152 167.04L294.8 133.624L292.189 128.467L290.1 118.772L287.489 115.885L285.052 131.355L283.137 106.602L280.352 108.871C277.984 102.931 274.84 103.646 273.563 104.746C272.693 106.259 270.987 109.201 271.126 108.871C271.265 108.541 269.675 109.559 268.863 110.109L264.337 126.817L262.074 130.117L259.811 144.969L257.896 146.619C256.504 147.774 253.602 153.426 252.326 156.107H250.063C249.541 160.851 248.427 170.752 248.148 172.403C247.87 174.053 243.274 200.318 241.011 213.244L238.922 223.558L233.874 264.399Z" fill="#FFAE00" fill-opacity="0.11"/>
<path d="M229 271L233.874 264.399L238.922 223.558L241.011 213.244C243.274 200.318 247.87 174.053 248.148 172.403C248.427 170.752 249.541 160.851 250.063 156.107H252.326C253.602 153.426 256.504 147.774 257.896 146.619L259.811 144.969L262.074 130.117L264.337 126.817L268.863 110.109C269.675 109.559 271.265 108.541 271.126 108.871C270.987 109.201 272.693 106.259 273.563 104.746C274.84 103.646 277.984 102.931 280.352 108.871L283.137 106.602L285.052 131.355L287.489 115.885L290.1 118.772L292.189 128.467L294.8 133.624L299.152 167.04L301.763 162.089L304.2 176.941C307.623 192.273 314.575 230.2 314.993 259.243L317.952 266.462L323 271" stroke="#FFAE00" stroke-dasharray="2 2"/>
<defs>
<filter id="filter0_bd_705_4432" x="183.484" y="-2.86914" width="196.414" height="72.6753" filterUnits="userSpaceOnUse" color-interpolation-filters="sRGB">
<feFlood flood-opacity="0" result="BackgroundImageFix"/>
<feGaussianBlur in="BackgroundImage" stdDeviation="3.5"/>
<feComposite in2="SourceAlpha" operator="in" result="effect1_backgroundBlur_705_4432"/>
<feColorMatrix in="SourceAlpha" type="matrix" values="0 0 0 0 0 0 0 0 0 0 0 0 0 0 0 0 0 0 127 0" result="hardAlpha"/>
<feOffset dy="4"/>
<feGaussianBlur stdDeviation="2"/>
<feComposite in2="hardAlpha" operator="out"/>
<feColorMatrix type="matrix" values="0 0 0 0 0 0 0 0 0 0 0 0 0 0 0 0 0 0 0.1 0"/>
<feBlend mode="normal" in2="effect1_backgroundBlur_705_4432" result="effect2_dropShadow_705_4432"/>
<feBlend mode="normal" in="SourceGraphic" in2="effect2_dropShadow_705_4432" result="shape"/>
</filter>
<linearGradient id="paint0_linear_705_4432" x1="13.7915" y1="124.499" x2="98.8137" y2="123.544" gradientUnits="userSpaceOnUse">
<stop stop-color="#534B52"/>
<stop offset="1" stop-color="white" stop-opacity="0"/>
</linearGradient>
<linearGradient id="paint1_linear_705_4432" x1="46.272" y1="124.499" x2="131.294" y2="123.544" gradientUnits="userSpaceOnUse">
<stop stop-color="#534B52"/>
<stop offset="1" stop-color="white" stop-opacity="0"/>
</linearGradient>
<linearGradient id="paint2_linear_705_4432" x1="78.7524" y1="124.499" x2="163.775" y2="123.544" gradientUnits="userSpaceOnUse">
<stop stop-color="#534B52"/>
<stop offset="1" stop-color="white" stop-opacity="0"/>
</linearGradient>
<linearGradient id="paint3_linear_705_4432" x1="111.233" y1="124.499" x2="196.255" y2="123.544" gradientUnits="userSpaceOnUse">
<stop stop-color="#534B52"/>
<stop offset="1" stop-color="white" stop-opacity="0"/>
</linearGradient>
<linearGradient id="paint4_linear_705_4432" x1="145.624" y1="124.499" x2="230.646" y2="123.544" gradientUnits="userSpaceOnUse">
<stop stop-color="#534B52"/>
<stop offset="1" stop-color="white" stop-opacity="0"/>
</linearGradient>
<linearGradient id="paint5_linear_705_4432" x1="176.194" y1="124.499" x2="261.216" y2="123.544" gradientUnits="userSpaceOnUse">
<stop stop-color="#534B52"/>
<stop offset="1" stop-color="white" stop-opacity="0"/>
</linearGradient>
<linearGradient id="paint6_linear_705_4432" x1="208.674" y1="124.499" x2="293.697" y2="123.544" gradientUnits="userSpaceOnUse">
<stop stop-color="#534B52"/>
<stop offset="1" stop-color="white" stop-opacity="0"/>
</linearGradient>
<linearGradient id="paint7_linear_705_4432" x1="241.155" y1="124.499" x2="326.177" y2="123.544" gradientUnits="userSpaceOnUse">
<stop stop-color="#534B52"/>
<stop offset="1" stop-color="white" stop-opacity="0"/>
</linearGradient>
<linearGradient id="paint8_linear_705_4432" x1="273.635" y1="124.499" x2="358.657" y2="123.544" gradientUnits="userSpaceOnUse">
<stop stop-color="#534B52"/>
<stop offset="1" stop-color="white" stop-opacity="0"/>
</linearGradient>
<linearGradient id="paint9_linear_705_4432" x1="306.116" y1="124.499" x2="391.138" y2="123.544" gradientUnits="userSpaceOnUse">
<stop stop-color="#534B52"/>
<stop offset="1" stop-color="white" stop-opacity="0"/>
</linearGradient>
<linearGradient id="paint10_linear_705_4432" x1="338.596" y1="124.499" x2="423.618" y2="123.544" gradientUnits="userSpaceOnUse">
<stop stop-color="#534B52"/>
<stop offset="1" stop-color="white" stop-opacity="0"/>
</linearGradient>
<linearGradient id="paint11_linear_705_4432" x1="369.167" y1="124.499" x2="454.189" y2="123.544" gradientUnits="userSpaceOnUse">
<stop stop-color="#534B52"/>
<stop offset="1" stop-color="white" stop-opacity="0"/>
</linearGradient>
<linearGradient id="paint12_linear_705_4432" x1="-18.689" y1="124.499" x2="66.3332" y2="123.544" gradientUnits="userSpaceOnUse">
<stop stop-color="#534B52"/>
<stop offset="1" stop-color="white" stop-opacity="0"/>
</linearGradient>
<linearGradient id="paint13_linear_705_4432" x1="86" y1="104" x2="86" y2="321.336" gradientUnits="userSpaceOnUse">
<stop stop-color="#78A1BB"/>
<stop offset="1" stop-color="#78A1BB" stop-opacity="0.13"/>
</linearGradient>
<linearGradient id="paint14_linear_705_4432" x1="372" y1="79" x2="372" y2="328.872" gradientUnits="userSpaceOnUse">
<stop stop-color="#78A1BB"/>
<stop offset="1" stop-color="#78A1BB" stop-opacity="0.13"/>
</linearGradient>
<linearGradient id="paint15_linear_705_4432" x1="182" y1="141" x2="182" y2="310.184" gradientUnits="userSpaceOnUse">
<stop stop-color="#78A1BB"/>
<stop offset="1" stop-color="#78A1BB" stop-opacity="0.13"/>
</linearGradient>
</defs>
</svg>
